<svg width="64" height="64" viewBox="0 0 64 64" fill="none" xmlns="http://www.w3.org/2000/svg">
<path d="M43.3439 20.656C40.4655 17.7777 36.4021 15.9153 31.9999 15.9153C27.5978 15.9153 23.5343 17.6931 20.656 20.656C17.7777 23.5343 15.9153 27.5978 15.9153 31.9999C15.9153 36.4021 17.7777 40.4655 20.656 43.3439C23.5343 46.2222 27.5978 48.0846 31.9999 48.0846C36.4021 48.0846 40.4655 46.3068 43.3439 43.3439C46.2222 40.4655 48.0846 36.4021 48.0846 31.9999C48.0846 27.5978 46.3068 23.5343 43.3439 20.656ZM40.2962 40.2962C38.1798 42.4126 35.2169 43.6825 31.9999 43.6825C28.783 43.6825 25.82 42.4126 23.7036 40.2962C21.5872 38.1798 20.3174 35.2169 20.3174 31.9999C20.3174 28.783 21.5872 25.82 23.7036 23.7036C25.82 21.5872 28.783 20.3174 31.9999 20.3174C35.2169 20.3174 38.1798 21.5872 40.2962 23.7036C42.4126 25.82 43.6825 28.783 43.6825 31.9999C43.6825 35.2169 42.4126 38.1798 40.2962 40.2962Z" fill="#FF9900"/>
<path d="M61.7989 29.7988H55.2804C54.0952 29.7988 53.0793 30.8147 53.0793 31.9999C53.0793 33.1851 54.0952 34.2009 55.2804 34.2009H61.7989C62.9841 34.2009 64 33.1851 64 31.9999C64 30.8147 62.9841 29.7988 61.7989 29.7988Z" fill="#FF9900"/>
<path d="M31.9999 53.0793C30.8147 53.0793 29.7988 54.0952 29.7988 55.2804V61.7989C29.7988 62.9841 30.8147 64 31.9999 64C33.1851 64 34.2009 62.9841 34.2009 61.7989V55.2804C34.2009 54.0952 33.1851 53.0793 31.9999 53.0793Z" fill="#FF9900"/>
<path d="M54.6033 51.5557L49.9472 46.8996C49.1853 46.053 47.7461 46.053 46.8996 46.8996C46.053 47.7461 46.053 49.1006 46.8996 49.9472L51.5557 54.6033C52.4022 55.4498 53.7567 55.4498 54.6033 54.6033C55.4498 53.7567 55.4498 52.4022 54.6033 51.5557Z" fill="#FF9900"/>
<path d="M31.9999 0C30.8147 0 29.7988 1.01587 29.7988 2.20106V8.71958C29.7988 9.90476 30.8147 10.9206 31.9999 10.9206C33.1851 10.9206 34.2009 9.90476 34.2009 8.71958V2.20106C34.2009 1.01587 33.1851 0 31.9999 0Z" fill="#FF9900"/>
<path d="M54.6877 9.39688C53.8412 8.55032 52.4867 8.55032 51.6401 9.39688L46.984 14.053C46.1375 14.8995 46.1375 16.254 46.984 17.1006C47.7459 17.9471 49.1851 17.9471 50.0317 17.1006L54.6877 12.4445C55.5343 11.5979 55.5343 10.2434 54.6877 9.39688Z" fill="#FF9900"/>
<path d="M8.71958 29.7988H2.20106C1.01587 29.7988 0 30.8147 0 31.9999C0 33.1851 0.931217 34.2009 2.20106 34.2009H8.71958C9.90476 34.2009 10.9206 33.1851 10.9206 31.9999C10.9206 30.8147 9.90476 29.7988 8.71958 29.7988Z" fill="#FF9900"/>
<path d="M17.0159 46.8996C16.254 46.053 14.8148 46.053 13.9683 46.8996L9.31217 51.5557C8.46561 52.4022 8.46561 53.7567 9.31217 54.6033C10.1587 55.4498 11.5132 55.4498 12.3598 54.6033L17.0159 49.9472C17.8624 49.1006 17.8624 47.7461 17.0159 46.8996Z" fill="#FF9900"/>
<path d="M17.0159 14.053L12.3598 9.39688C11.5132 8.55032 10.1587 8.55032 9.31217 9.39688C8.46561 10.2434 8.46561 11.5979 9.31217 12.4445L13.9683 17.1006C14.8148 17.9471 16.1693 17.9471 17.0159 17.1006C17.8624 16.254 17.8624 14.8995 17.0159 14.053Z" fill="#FF9900"/>
</svg>
